HIERARCHY
ROOT Beta:Hips
{
	OFFSET 0.00 0.00 0.00
	CHANNELS 6 Xposition Yposition Zposition Yrotation Xrotation Zrotation
	JOINT Beta:Spine
	{
		OFFSET	0.0000	9.2263	1.5771
		CHANNELS 3 Xrotation Yrotation Zrotation
		JOINT Beta:Spine1
		{
			OFFSET	0.0000	16.2540	-0.1656
			CHANNELS 3 Xrotation Yrotation Zrotation
			JOINT Beta:Spine2
			{
				OFFSET	0.0000	13.6396	-1.2923
				CHANNELS 3 Xrotation Yrotation Zrotation
				JOINT Beta:Neck
				{
					OFFSET	0.0000	13.8774	-4.3542
					CHANNELS 3 Xrotation Yrotation Zrotation
					JOINT Beta:Neck1
					{
						OFFSET	0.0000	4.3400	0.9269
						CHANNELS 3 Xrotation Yrotation Zrotation
						JOINT Beta:Head
						{
							OFFSET	0.0000	4.0266	0.8585
							CHANNELS 3 Xrotation Yrotation Zrotation
							End Site
							{
								OFFSET 0.0000 23.0297 0.1231
							}
						}
					}
				}
				JOINT Beta:LeftShoulder
				{
					OFFSET	6.1442	10.1870	-3.7932
					CHANNELS 3 Zrotation Xrotation Yrotation
					JOINT Beta:LeftArm
					{
						OFFSET	12.3191	-1.1130	-1.7935
						CHANNELS 3 Zrotation Xrotation Yrotation
						JOINT Beta:LeftForeArm
						{
							OFFSET	27.6870	0.0000	0.0000
							CHANNELS 3 Xrotation Zrotation Yrotation
							JOINT Beta:LeftHand
							{
								OFFSET	27.8738	0.0000	0.0000
								CHANNELS 3 Zrotation Yrotation Xrotation
								JOINT Beta:LeftHandThumb1
								{
									OFFSET	2.3785	-1.0029	2.6209
									CHANNELS 3 Zrotation Xrotation Yrotation
									JOINT Beta:LeftHandThumb2
									{
										OFFSET	3.3624	-1.0029	2.8398
										CHANNELS 3 Zrotation Xrotation Yrotation
										JOINT Beta:LeftHandThumb3
										{
											OFFSET	4.5018	-1.3445	2.1783
											CHANNELS 3 Zrotation Xrotation Yrotation
											End Site
											{
												OFFSET 2.6000 -1.0000 1.0000
											}
										}
									}
								}
								JOINT Beta:LeftHandMiddle1
								{
									OFFSET	10.4639	0.6148	0.4298
									CHANNELS 3 Zrotation Xrotation Yrotation
									JOINT Beta:LeftHandMiddle2
									{
										OFFSET	5.7921	0.0000	0.0000
										CHANNELS 3 Zrotation Xrotation Yrotation
										JOINT Beta:LeftHandMiddle3
										{
											OFFSET	3.7132	0.0000	0.0000
											CHANNELS 3 Zrotation Xrotation Yrotation
											End Site
											{
												OFFSET 2.3000 0.0000 0.0000
											}
										}
									}
								}
								JOINT Beta:LeftHandIndex1
								{
									OFFSET	10.3945	0.6148	2.7055
									CHANNELS 3 Zrotation Xrotation Yrotation
									JOINT Beta:LeftHandIndex2
									{
										OFFSET	5.5493	0.0000	0.0000
										CHANNELS 3 Zrotation Xrotation Yrotation
										JOINT Beta:LeftHandIndex3
										{
											OFFSET	3.3911	0.0000	0.0000
											CHANNELS 3 Zrotation Xrotation Yrotation
											End Site
											{
												OFFSET 2.5000 0.0000 0.0000
											}
										}
									}
								}
								JOINT Beta:LeftHandRing1
								{
									OFFSET	10.3252	0.3211	-1.8755
									CHANNELS 3 Zrotation Xrotation Yrotation
									JOINT Beta:LeftHandRing2
									{
										OFFSET	5.4452	0.0000	0.0000
										CHANNELS 3 Zrotation Xrotation Yrotation
										JOINT Beta:LeftHandRing3
										{
											OFFSET	3.7132	0.0000	0.0000
											CHANNELS 3 Zrotation Xrotation Yrotation
											End Site
											{
												OFFSET 2.0000 0.0000 0.0000
											}
										}
									}
								}
								JOINT Beta:LeftHandPinky1
								{
									OFFSET	10.0130	-0.0783	-3.9671
									CHANNELS 3 Zrotation Xrotation Yrotation
									JOINT Beta:LeftHandPinky2
									{
										OFFSET	3.6763	0.0000	0.0000
										CHANNELS 3 Zrotation Xrotation Yrotation
										JOINT Beta:LeftHandPinky3
										{
											OFFSET	2.8113	0.0000	0.0000
											CHANNELS 3 Zrotation Xrotation Yrotation
											End Site
											{
												OFFSET 2.9000 0.0000 0.0000
											}
										}
									}
								}
							}
						}
					}
				}
				JOINT Beta:RightShoulder
				{
					OFFSET	-6.1402	10.1870	-3.7932
					CHANNELS 3 Zrotation Xrotation Yrotation
					JOINT Beta:RightArm
					{
						OFFSET	-12.3231	-1.1130	-1.7935
						CHANNELS 3 Zrotation Xrotation Yrotation
						JOINT Beta:RightForeArm
						{
							OFFSET	-27.6870	0.0000	0.0000
							CHANNELS 3 Xrotation Zrotation Yrotation
							JOINT Beta:RightHand
							{
								OFFSET	-27.8738	0.0000	0.0000
								CHANNELS 3 Zrotation Yrotation Xrotation
								JOINT Beta:RightHandThumb1
								{
									OFFSET	-2.5178	-0.9367	2.5137
									CHANNELS 3 Zrotation Xrotation Yrotation
									JOINT Beta:RightHandThumb2
									{
										OFFSET	-3.2638	-1.0870	2.9669
										CHANNELS 3 Zrotation Xrotation Yrotation
										JOINT Beta:RightHandThumb3
										{
											OFFSET	-4.4165	-1.3703	2.1350
											CHANNELS 3 Zrotation Xrotation Yrotation
											End Site
											{
												OFFSET -2.6000 -1.0000 1.0000
											}
										}
									}
								}
								JOINT Beta:RightHandIndex1
								{
									OFFSET	-10.4665	0.4896	2.7120
									CHANNELS 3 Zrotation Xrotation Yrotation
									JOINT Beta:RightHandIndex2
									{
										OFFSET	-5.3768	0.0000	0.0000
										CHANNELS 3 Zrotation Xrotation Yrotation
										JOINT Beta:RightHandIndex3
										{
											OFFSET	-3.3855	0.0000	0.0000
											CHANNELS 3 Zrotation Xrotation Yrotation
											End Site
											{
												OFFSET -2.6000 0.0000 0.0000
											}
										}
									}
								}
								JOINT Beta:RightHandMiddle1
								{
									OFFSET	-10.7596	0.4896	0.4278
									CHANNELS 3 Zrotation Xrotation Yrotation
									JOINT Beta:RightHandMiddle2
									{
										OFFSET	-5.6168	0.0000	0.0000
										CHANNELS 3 Zrotation Xrotation Yrotation
										JOINT Beta:RightHandMiddle3
										{
											OFFSET	-3.7364	0.0000	0.0000
											CHANNELS 3 Zrotation Xrotation Yrotation
											End Site
											{
												OFFSET -2.3000 0.0000 0.0000
											}
										}
									}
								}
								JOINT Beta:RightHandRing1
								{
									OFFSET	-10.4702	0.3879	-1.9363
									CHANNELS 3 Zrotation Xrotation Yrotation
									JOINT Beta:RightHandRing2
									{
										OFFSET	-5.4013	0.0000	0.0000
										CHANNELS 3 Zrotation Xrotation Yrotation
										JOINT Beta:RightHandRing3
										{
											OFFSET	-3.3916	0.0000	0.0000
											CHANNELS 3 Zrotation Xrotation Yrotation
											End Site
											{
												OFFSET -2.2000 0.0000 0.0000
											}
										}
									}
								}
								JOINT Beta:RightHandPinky1
								{
									OFFSET	-9.9715	-0.1191	-3.9540
									CHANNELS 3 Zrotation Xrotation Yrotation
									JOINT Beta:RightHandPinky2
									{
										OFFSET	-3.6528	0.0000	0.0000
										CHANNELS 3 Zrotation Xrotation Yrotation
										JOINT Beta:RightHandPinky3
										{
											OFFSET	-2.7820	0.0000	0.0000
											CHANNELS 3 Zrotation Xrotation Yrotation
											End Site
											{
												OFFSET -2.9000 0.0000 0.0000
											}
										}
									}
								}
							}
						}
					}
				}
			}
		}
	}
	JOINT Beta:LeftUpLeg
	{
		OFFSET	9.6338	-3.2733	0.0000
		CHANNELS 3 Xrotation Yrotation Zrotation
		JOINT Beta:LeftLeg
		{
			OFFSET	0.0000	-41.7300	-1.7300
			CHANNELS 3 Xrotation Yrotation Zrotation
			JOINT Beta:LeftFoot
			{
				OFFSET	0.0126	-39.1900	-0.8477
				CHANNELS 3 Xrotation Yrotation Zrotation
				JOINT Beta:LeftToeBase
				{
					OFFSET	-0.1833	-12.1931	8.2823
					CHANNELS 3 Xrotation Yrotation Zrotation
					End Site
					{
						OFFSET 0.0000 0.0000 10.1681
					}
				}
			}
		}
	}
	JOINT Beta:RightUpLeg
	{
		OFFSET	-9.6338	-3.2733	0.0000
		CHANNELS 3 Xrotation Yrotation Zrotation
		JOINT Beta:RightLeg
		{
			OFFSET	0.0000	-41.7300	-1.7300
			CHANNELS 3 Xrotation Yrotation Zrotation
			JOINT Beta:RightFoot
			{
				OFFSET	0.0126	-39.1900	-0.8477
				CHANNELS 3 Xrotation Yrotation Zrotation
				JOINT Beta:RightToeBase
				{
					OFFSET	-0.1833	-12.1931	8.2823
					CHANNELS 3 Xrotation Yrotation Zrotation
					End Site
					{
						OFFSET 0.0032 0.0000 10.1681
					}
				}
			}
		}
	}
}
MOTION
Frames: 5
Frame Time: 0.0333333
-14.0342 94.4057 81.7332 -23.7221 -3.8339 2.5258 5.6299 1.3268 0.0774 0.3953 0.3610 -0.1787 0.3957 0.3635 -0.1801 -1.6695 -0.6685 -0.6883 -0.0000 0.0000 -0.0000 -1.3352 -8.9890 3.3791 -18.4650 0.2269 2.6526 -63.1485 -0.4856 7.7074 -0.0000 0.0000 -10.3834 -5.1910 -1.2836 15.3345 3.8277 -2.7157 4.2562 3.1895 7.5134 8.9666 21.7259 -13.4827 -31.4633 -31.1946 0.0026 1.7999 -36.9733 0.0030 -0.0090 -14.6474 0.0005 -0.0038 -17.4518 0.0686 -1.3733 -40.5719 0.0036 -0.0098 -18.3483 0.0008 -0.0047 -39.4891 0.0040 4.8326 -32.8149 0.0024 -0.0081 -17.0299 0.0007 -0.0044 -41.6818 -0.3038 1.7916 -38.5715 0.0033 -0.0094 -25.7755 0.0015 -0.0066 18.8619 1.3776 1.9096 56.2541 10.5924 11.5004 0.0000 0.0000 14.8654 0.8276 5.0373 -5.1021 -8.0203 2.2964 -6.1513 7.1337 9.9344 -9.0697 -21.5153 -20.1627 12.2515 23.9434 0.0050 3.9849 29.3400 0.0010 0.0039 15.6513 0.0003 0.0021 34.3752 0.0016 -0.4680 31.2995 0.0012 0.0041 21.3646 0.0005 0.0029 35.7216 0.0017 -2.9268 41.4855 0.0020 0.0052 16.2054 0.0003 0.0022 31.7754 -0.1907 -0.6810 28.2867 0.0010 0.0037 20.2140 0.0005 0.0027 -23.6435 4.5403 4.3437 49.0880 3.1463 2.0093 -2.2614 0.2262 -5.8412 -3.0761 0.0000 -0.0000 -6.6466 -4.7007 6.5953 25.4759 7.2456 -1.5812 -10.0257 1.7758 -10.2965 -4.0683 -0.0000 -0.0000 
-15.0614 94.2457 85.6808 -25.3077 -3.4959 2.3318 5.5672 1.8023 0.0978 0.3967 0.4833 -0.1615 0.3973 0.4853 -0.1632 -1.7233 -0.7047 -0.6550 -0.0000 0.0000 -0.0000 -2.0101 -8.9835 3.0544 -18.1076 0.1879 2.7991 -64.3604 -1.6423 10.9420 -0.0000 0.0000 -9.1440 -6.3237 -0.0372 16.4634 3.8277 -2.7157 4.2562 3.8243 7.2144 7.7359 21.7958 -13.4997 -31.5964 -30.8605 0.0025 2.1007 -36.9262 0.0030 -0.0090 -14.6633 0.0005 -0.0038 -17.2324 0.1033 -1.0993 -40.3178 0.0036 -0.0098 -18.3227 0.0008 -0.0047 -39.4912 0.0039 5.1548 -32.5348 0.0024 -0.0081 -17.0504 0.0007 -0.0044 -41.3095 -0.3890 2.3691 -38.5602 0.0033 -0.0094 -25.7180 0.0015 -0.0065 18.8502 1.5230 2.4848 53.5541 11.3124 15.6319 0.0000 -0.0000 18.3650 -0.8329 6.5671 -8.8003 -8.0203 2.2964 -6.1513 7.1159 9.9299 -9.0372 -21.3846 -20.0439 12.2134 24.2108 0.0050 4.1028 29.3399 0.0010 0.0039 15.7262 0.0003 0.0022 34.5774 0.0016 -0.3486 31.3557 0.0012 0.0041 21.3931 0.0005 0.0029 35.9160 0.0017 -2.8043 41.7515 0.0020 0.0053 16.1868 0.0003 0.0022 31.8022 -0.1988 -0.5595 28.3947 0.0010 0.0038 20.2527 0.0005 0.0027 -25.9192 4.3104 5.0743 39.3258 5.5232 2.4180 -1.7373 0.2420 -6.5559 -2.2831 -0.0000 -0.0000 -3.9180 -5.2605 6.0907 25.3825 9.5316 -1.6322 -12.3645 2.1755 -10.5539 -4.6772 0.0000 0.0000 
-16.1155 93.8447 89.5566 -26.7207 -3.0281 1.9316 5.4343 2.1573 0.2460 0.3831 0.5717 -0.1039 0.3845 0.5727 -0.1056 -1.8106 -0.7392 -0.5917 -0.0000 0.0000 -0.0000 -2.6536 -8.9271 2.7841 -17.7879 0.1543 2.9279 -65.2488 -2.5466 13.6298 -0.0000 0.0000 -7.7223 -6.9153 1.1497 18.1044 3.8277 -2.7158 4.2562 4.5524 6.8656 6.2966 22.0996 -13.5633 -31.9876 -30.4425 0.0025 2.4896 -36.8071 0.0030 -0.0090 -14.6680 0.0005 -0.0038 -17.2592 0.1349 -0.8522 -39.8544 0.0035 -0.0096 -18.3222 0.0008 -0.0047 -39.4815 0.0040 5.5123 -32.2799 0.0023 -0.0080 -17.0692 0.0007 -0.0044 -40.8810 -0.4736 2.9382 -38.6060 0.0033 -0.0094 -25.6789 0.0015 -0.0065 18.8625 1.6961 3.1634 50.8989 11.2890 19.3325 -0.0000 0.0000 21.7720 -2.2665 7.3881 -11.3780 -8.0203 2.2964 -6.1513 7.1213 9.9310 -9.0483 -21.3134 -19.9743 12.1911 24.4332 0.0050 4.2256 29.3397 0.0010 0.0039 15.8067 0.0003 0.0022 34.7300 0.0016 -0.2363 31.3945 0.0012 0.0041 21.4208 0.0005 0.0029 36.0741 0.0017 -2.6769 41.8381 0.0020 0.0053 16.1870 0.0003 0.0022 31.7927 -0.2078 -0.4351 28.3949 0.0009 0.0038 20.2620 0.0005 0.0027 -26.1542 4.3569 5.9604 25.3961 7.6802 3.0369 0.5361 0.3839 -7.0936 -2.0464 0.0000 -0.0000 -1.3615 -5.6030 5.6908 25.2049 9.9381 -1.5658 -14.9630 4.0355 -10.5667 -5.5605 0.0000 -0.0000 
-17.2643 93.1415 93.4230 -27.9913 -2.2345 1.2407 4.8662 2.3808 0.5878 0.3827 0.6207 -0.0184 0.3855 0.6195 -0.0187 -1.9278 -0.7549 -0.5474 -0.0000 0.0000 -0.0000 -3.1236 -8.8759 2.7906 -17.7105 0.1018 3.1468 -65.6294 -3.3143 15.7394 0.0000 -0.0000 -6.3848 -7.1874 2.5356 20.6965 3.8277 -2.7158 4.2562 5.1142 6.5923 5.1637 22.2091 -13.5881 -32.1704 -30.2251 0.0025 2.7794 -36.6966 0.0030 -0.0090 -14.6697 0.0005 -0.0038 -17.4370 0.1614 -0.6416 -39.8021 0.0035 -0.0096 -18.2899 0.0008 -0.0047 -39.6075 0.0040 5.7465 -32.1901 0.0023 -0.0080 -17.0282 0.0007 -0.0044 -40.6021 -0.5451 3.4119 -38.6429 0.0033 -0.0094 -25.6434 0.0015 -0.0065 18.8486 1.8112 3.6206 48.4605 10.9113 22.9819 0.0000 -0.0000 24.2791 -3.4992 8.1931 -12.6680 -8.0202 2.2964 -6.1513 7.1630 9.9419 -9.1205 -21.1502 -19.8071 12.1377 24.6481 0.0050 4.2478 29.3391 0.0010 0.0039 15.6921 0.0003 0.0021 34.8898 0.0016 -0.1806 31.4361 0.0012 0.0041 21.4311 0.0005 0.0029 36.2148 0.0017 -2.5864 42.0454 0.0020 0.0053 16.1610 0.0003 0.0022 31.8334 -0.2078 -0.4333 28.3968 0.0010 0.0038 20.2523 0.0005 0.0027 -26.5010 4.5016 7.0483 12.0435 7.8883 3.5056 5.8417 1.3397 -6.9947 -2.6745 0.0000 -0.0000 0.6170 -5.6251 5.5734 25.4932 9.9710 -1.4332 -17.7740 5.6690 -10.4770 -5.5011 -0.0000 -0.0000 
-18.5718 91.8792 97.6178 -28.9684 -1.5498 0.4945 3.9130 2.4302 1.0287 0.5826 0.6169 -0.0234 0.5873 0.6136 -0.0195 -2.0142 -0.7690 -0.5144 -0.0000 0.0000 -0.0000 -3.5647 -8.9630 2.9858 -17.6898 0.0787 3.2462 -65.5575 -3.7914 17.4797 0.0000 -0.0000 -5.4898 -7.4091 4.4947 23.6574 3.8277 -2.7157 4.2562 5.3073 6.4973 4.7698 21.7942 -13.5100 -31.7684 -30.2643 0.0025 2.9056 -36.6241 0.0030 -0.0089 -14.6772 0.0005 -0.0038 -17.6791 0.1723 -0.5527 -39.0837 0.0034 -0.0095 -18.2606 0.0008 -0.0047 -39.6835 0.0040 5.8011 -32.1456 0.0023 -0.0080 -17.0573 0.0006 -0.0044 -40.3615 -0.5842 3.6622 -38.6383 0.0033 -0.0094 -25.6412 0.0015 -0.0065 18.9548 1.8679 3.8158 46.5560 10.1043 26.4248 -0.0000 0.0000 25.3891 -4.2305 9.0155 -12.3318 -8.0203 2.2964 -6.1513 7.2515 9.9648 -9.2740 -20.9480 -19.5894 12.0683 24.7232 0.0050 4.1091 29.3381 0.0010 0.0039 15.7299 0.0003 0.0022 34.9761 0.0016 -0.3087 31.4749 0.0012 0.0041 21.4099 0.0006 0.0029 36.1830 0.0017 -2.6589 42.2755 0.0020 0.0053 16.1184 0.0003 0.0022 31.8055 -0.1976 -0.5729 28.4407 0.0010 0.0038 20.2071 0.0005 0.0027 -29.5447 4.9047 8.8172 5.8668 7.3772 2.6122 0.0167 0.9489 -8.5623 -3.1626 -0.0000 -0.0000 2.1209 -5.6730 5.4216 27.4472 9.8392 -1.3579 -21.2006 7.1026 -10.1871 -6.0722 0.0000 -0.0000 
